<?xml version="1.0" encoding="UTF-8" standalone="no"?>
<svg width="600px" height="400px" viewBox="0 0 600 400" version="1.1" xmlns="http://www.w3.org/2000/svg" xmlns:xlink="http://www.w3.org/1999/xlink">
    <!-- Generator: Sketch 46 (44423) - http://www.bohemiancoding.com/sketch -->
    <title>transparent</title>
    <desc>Created with Sketch.</desc>
    <defs></defs>
    <g id="Page-1" stroke="none" stroke-width="1" fill="none" fill-rule="evenodd">
        <g id="transparent">
            <g id="pieces" transform="translate(15.000000, 22.000000)">
                <path d="M31.56,84.872 C32.088,84.808 32.696,84.776 33.624,84.776 L40.2,84.776 C41.224,84.776 41.672,84.792 42.296,84.872 L42.296,83.592 C41.736,83.672 41.272,83.688 40.2,83.688 L33.624,83.688 C32.744,83.688 32.12,83.656 31.56,83.576 L31.56,84.872 Z M43.864,92.952 C43.256,93.048 42.808,93.064 41.736,93.064 L32.232,93.064 C31.16,93.064 30.696,93.032 30.12,92.952 L30.12,94.264 C30.696,94.184 31.288,94.152 32.248,94.152 L41.736,94.152 C42.712,94.152 43.304,94.184 43.864,94.264 L43.864,92.952 Z" id="二" fill="#52D3C0"></path>
                <path d="M236.04,208.072 C235.56,208.152 234.872,208.184 233.928,208.184 L224.072,208.184 C223.144,208.184 222.456,208.152 221.944,208.072 L221.944,209.4 C222.456,209.32 223.192,209.288 224.072,209.288 L233.928,209.288 C234.92,209.288 235.464,209.32 236.04,209.4 L236.04,208.072 Z" id="一" fill="#114B5F"></path>
                <path d="M13.184,5.632 C13.984,5.632 14.432,5.664 14.944,5.744 L14.944,4.496 C14.512,4.576 13.984,4.608 13.168,4.608 L8.32,4.608 C8.368,3.904 8.384,3.248 8.4,2.64 C8.4,1.872 8.432,1.504 8.512,0.976 L7.2,0.976 C7.28,1.408 7.312,1.968 7.312,2.736 C7.312,3.312 7.296,3.84 7.264,4.32 C7.248,4.496 7.248,4.496 7.248,4.608 L2.832,4.608 C1.984,4.608 1.456,4.576 1.04,4.496 L1.04,5.744 C1.504,5.664 1.952,5.632 2.8,5.632 L7.152,5.632 C7.072,6.224 7.024,6.528 6.96,6.88 C6.608,8.608 5.936,10.048 4.928,11.216 C3.888,12.416 2.72,13.2 0.72,14.016 C1.056,14.368 1.184,14.544 1.408,14.992 C2.128,14.656 2.48,14.48 2.912,14.24 C3.984,13.616 4.976,12.8 5.712,11.936 C6.832,10.64 7.68,8.848 7.984,7.072 C9.152,10.752 11.104,13.072 14.704,14.976 C14.96,14.464 15.088,14.288 15.408,13.904 C13.584,13.12 12.24,12.144 11.072,10.784 C9.856,9.376 8.944,7.568 8.464,5.632 L13.184,5.632 Z" id="大" fill="#114B5F"></path>
                <path d="M125.264,105.528 L124.064,105.528 C124.144,104.936 124.176,104.408 124.176,103.688 L124.176,94.824 C124.176,94.104 124.16,93.672 124.096,93.128 C124.656,93.192 125.056,93.208 125.808,93.208 L134.224,93.208 C134.976,93.208 135.392,93.192 135.952,93.128 C135.888,93.624 135.872,94.088 135.872,94.824 L135.872,103.688 C135.872,104.392 135.904,104.968 135.984,105.528 L134.784,105.528 L134.784,104.248 L125.264,104.248 L125.264,105.528 Z M125.264,94.2 L125.264,103.256 L134.784,103.256 L134.784,94.2 L125.264,94.2 Z" id="口" fill="#E84F4C"></path>
                <path d="M381.184,21.024 C380.208,22.768 379.632,23.6 378.64,24.688 C377.488,25.984 376,27.232 374.576,28.096 C374.896,28.336 375.152,28.64 375.392,29.024 C376.544,28.224 377.504,27.392 378.48,26.4 C379.696,25.152 380.56,23.904 381.392,22.144 C381.36,22.8 381.328,23.616 381.328,24.144 L381.328,29.344 C381.328,30.08 381.296,30.624 381.216,31.184 L382.512,31.184 C382.432,30.672 382.4,30.096 382.4,29.344 L382.4,24.144 C382.4,23.552 382.368,22.832 382.32,22.08 C382.96,23.28 383.248,23.76 383.776,24.48 C384.624,25.648 385.152,26.208 386.432,27.328 C387.216,28.016 387.616,28.32 388.592,28.976 C388.848,28.528 388.992,28.368 389.392,27.968 C387.872,27.12 386.592,26.144 385.312,24.8 C384.304,23.76 383.552,22.736 382.56,21.024 L387.12,21.024 C387.728,21.024 388.336,21.056 388.912,21.12 L388.912,19.968 C388.432,20.048 387.936,20.08 387.104,20.08 L382.4,20.08 L382.4,18.288 C382.4,17.792 382.432,17.328 382.512,16.832 L381.216,16.832 C381.296,17.344 381.328,17.76 381.328,18.304 L381.328,20.08 L376.864,20.08 C376.176,20.08 375.664,20.048 375.12,19.968 L375.12,21.12 C375.728,21.056 376.24,21.024 376.88,21.024 L381.184,21.024 Z" id="木" fill="#1CC8AF"></path>
                <path d="M453.552,336.056 L454.192,336.664 C454.048,336.904 454.048,336.904 453.392,338.456 C452.992,339.368 451.984,341.08 451.296,342.008 C451.152,342.216 451.024,342.376 450.752,342.712 C452.608,344.824 454.528,346.072 457.344,347 C456.976,347.4 456.88,347.544 456.624,348.04 C453.872,346.968 451.808,345.528 450.08,343.496 C448.304,345.432 446.432,346.76 443.632,348.056 C443.44,347.64 443.264,347.384 442.944,347.112 C444.8,346.296 445.744,345.768 446.928,344.92 C447.92,344.2 448.56,343.64 449.44,342.68 C448.608,341.544 447.856,340.184 447.184,338.584 C446.176,339.944 445.488,340.664 444.224,341.672 C443.936,341.288 443.904,341.24 443.424,340.888 C445.376,339.448 446.624,337.976 447.664,335.88 C448.128,334.952 448.336,334.376 448.496,333.64 L449.68,333.96 C449.536,334.232 449.504,334.28 449.312,334.728 C449.088,335.272 449.008,335.448 448.672,336.12 L452.192,336.12 C452.88,336.12 453.2,336.104 453.552,336.056 Z M452.784,337.032 L448.176,337.032 C448.08,337.208 447.904,337.512 447.808,337.656 C448.608,339.576 449.104,340.504 450.096,341.88 C451.216,340.456 451.936,339.144 452.784,337.032 Z" id="夂" fill="#E84F4C"></path>
                <path d="M67.36,177.784 L68.24,178.6 C68.064,178.696 68.064,178.696 67.504,179.08 C65.184,180.648 62.656,181.72 59.312,182.52 C59.152,182.104 58.992,181.832 58.688,181.48 C61.392,180.984 63.488,180.264 65.568,179.08 C66.384,178.632 67.04,178.152 67.36,177.784 Z M69.328,185.272 L70.224,186.184 C70.064,186.296 70.048,186.312 69.808,186.488 C66.352,189.128 63.344,190.536 58.816,191.624 C58.672,191.176 58.56,190.92 58.288,190.536 C60.064,190.216 61.808,189.704 63.584,188.952 C65.968,187.944 68.656,186.232 69.328,185.272 Z M68.064,181.512 L68.912,182.376 C68.672,182.52 68.576,182.584 68.208,182.856 C65.6,184.696 63.184,185.784 59.472,186.776 C59.28,186.328 59.152,186.088 58.864,185.736 C61.68,185.112 63.968,184.248 66.08,182.984 C67.136,182.376 67.744,181.912 68.064,181.512 Z" id="彡" fill="#114B5F"></path>
                <path d="M157.552,238.056 L158.192,238.664 C158.048,238.904 158.048,238.904 157.392,240.456 C156.992,241.368 155.984,243.08 155.296,244.008 C155.152,244.216 155.024,244.376 154.752,244.712 C156.608,246.824 158.528,248.072 161.344,249 C160.976,249.4 160.88,249.544 160.624,250.04 C157.872,248.968 155.808,247.528 154.08,245.496 C152.304,247.432 150.432,248.76 147.632,250.056 C147.44,249.64 147.264,249.384 146.944,249.112 C148.8,248.296 149.744,247.768 150.928,246.92 C151.92,246.2 152.56,245.64 153.44,244.68 C152.608,243.544 151.856,242.184 151.184,240.584 C150.176,241.944 149.488,242.664 148.224,243.672 C147.936,243.288 147.904,243.24 147.424,242.888 C149.376,241.448 150.624,239.976 151.664,237.88 C152.128,236.952 152.336,236.376 152.496,235.64 L153.68,235.96 C153.536,236.232 153.504,236.28 153.312,236.728 C153.088,237.272 153.008,237.448 152.672,238.12 L156.192,238.12 C156.88,238.12 157.2,238.104 157.552,238.056 Z M156.784,239.032 L152.176,239.032 C152.08,239.208 151.904,239.512 151.808,239.656 C152.608,241.576 153.104,242.504 154.096,243.88 C155.216,242.456 155.936,241.144 156.784,239.032 Z" id="夂" fill="#1CC8AF"></path>
                <path d="M213.36,335.976 C213.088,336.024 212.704,336.04 212,336.04 L207.2,336.04 C207.472,335.576 207.68,335.176 207.904,334.76 C208.064,334.424 208.208,334.168 208.336,333.96 L207.136,333.592 C206.976,334.216 206.752,334.712 206.256,335.56 C204.96,337.784 203.552,339.336 201.52,340.744 C201.888,341.064 202.048,341.24 202.288,341.624 C204.08,340.248 205.488,338.728 206.64,336.968 L212.592,336.968 C211.904,338.824 211.024,340.472 209.872,341.976 C208.736,341.064 207.536,340.232 206.112,339.384 L205.392,340.12 C206.88,340.984 207.84,341.672 209.168,342.792 C208.592,343.448 207.936,344.072 207.28,344.584 C205.888,345.688 204.464,346.472 202.32,347.304 C202.384,347.384 202.432,347.432 202.464,347.48 C202.592,347.64 202.672,347.736 202.704,347.784 C202.8,347.912 202.864,348.04 202.976,348.28 C205.504,347.192 207.072,346.216 208.688,344.76 C210.352,343.256 211.408,341.848 212.672,339.416 C213.232,338.344 213.408,337.928 213.744,337.032 C213.808,336.824 213.84,336.76 213.92,336.616 L213.36,335.976 Z" id="夕" fill="#E84F4C"></path>
                <path d="M147.4,161.544 L148.264,162.2 C148.136,162.328 148.04,162.44 147.768,162.792 C146.792,164.04 145.864,164.888 144.328,165.928 C144.136,165.56 144.072,165.496 143.672,165.128 C145.336,164.168 146.776,162.776 147.4,161.544 Z M146.92,176.216 L145.736,176.216 C145.8,175.72 145.832,175.16 145.832,174.392 L145.832,170.888 C145.832,170.248 145.848,169.8 145.88,169.096 C145.336,169.768 144.856,170.216 143.976,170.872 C143.816,170.456 143.752,170.36 143.416,169.944 C145.16,168.856 146.76,167 147.352,165.4 L148.264,166.008 C148.216,166.088 148.216,166.104 148.152,166.184 C148.104,166.264 148.104,166.264 147.832,166.696 C147.528,167.16 147.144,167.704 146.808,168.104 L146.808,174.392 C146.808,175.032 146.84,175.576 146.92,176.216 Z" id="彳" fill="#D8DC52"></path>
                <path d="M254.056,285.76 L256.168,285.76 C256.872,285.76 257.544,285.792 258.072,285.872 L258.072,284.64 C257.592,284.704 256.888,284.752 256.168,284.752 L254.056,284.752 L254.056,283.856 C254.056,283.44 254.088,283.088 254.152,282.72 L252.872,282.72 C252.92,283.104 252.952,283.488 252.952,283.856 L252.952,284.752 L249.032,284.752 L249.032,283.856 C249.032,283.456 249.064,283.072 249.128,282.72 L247.832,282.72 C247.896,283.104 247.928,283.456 247.928,283.856 L247.928,284.752 L245.768,284.752 C245.08,284.752 244.424,284.72 243.944,284.64 L243.944,285.872 C244.456,285.792 245.08,285.76 245.752,285.76 L247.928,285.76 L247.928,286.784 C247.928,287.12 247.896,287.456 247.848,287.84 L249.096,287.84 C249.048,287.504 249.032,287.216 249.032,286.784 L249.032,285.76 L252.952,285.76 L252.952,286.8 C252.952,287.216 252.936,287.488 252.888,287.84 L254.136,287.84 C254.072,287.456 254.056,287.152 254.056,286.784 L254.056,285.76 Z" id="⺾" fill="#6635E0"></path>
                <path d="M349.264,228.736 C348.864,227.344 348.72,226.928 348.224,225.808 L347.376,226.128 C347.824,227.088 348,227.664 348.336,229.152 L349.264,228.736 Z M345.552,222.704 C345.632,223.248 345.648,223.68 345.648,224.576 L345.648,235.264 C345.648,236.176 345.616,236.752 345.552,237.216 L346.8,237.216 C346.736,236.736 346.704,236.208 346.704,235.28 L346.704,224.576 C346.704,223.648 346.72,223.248 346.8,222.704 L345.552,222.704 Z M343.632,230.24 C344.208,228.88 344.448,227.984 344.704,226.112 L343.744,225.84 C343.52,227.68 343.328,228.4 342.688,229.84 L343.632,230.24 Z" id="⺖" fill="#1CC8AF"></path>
                <path d="M561.472,344.568 C561.888,344.92 561.888,344.92 562.016,345.048 C562.368,345.4 562.672,345.832 563.072,346.536 C562.224,347.272 561.776,347.576 560.8,348.136 C561.136,348.472 561.216,348.568 561.392,348.968 C562.272,348.44 562.736,348.088 563.504,347.432 C563.84,348.248 564.016,348.824 564.16,349.656 C564.016,349.88 563.824,350.168 563.616,350.424 C562.768,351.512 562.048,352.2 560.864,353 C561.184,353.32 561.28,353.448 561.456,353.848 C562.768,352.84 563.632,351.96 564.304,350.92 C564.368,351.816 564.4,352.44 564.4,353.176 C564.4,354.424 564.304,355.576 564.128,356.152 C563.968,356.76 563.776,356.952 563.328,356.952 C562.896,356.952 562.304,356.824 561.536,356.568 C561.648,356.936 561.68,357.176 561.696,357.672 C562.464,357.848 562.96,357.912 563.424,357.912 C564.304,357.912 564.72,357.64 564.976,356.872 C565.264,356.072 565.392,354.84 565.392,353.048 C565.392,350.296 565.072,348.456 564.272,346.712 C564.848,346.152 565.216,345.704 565.968,344.68 C566.144,344.44 566.192,344.376 566.32,344.232 L565.36,343.688 C565.104,344.328 564.544,345.096 563.808,345.848 C563.456,345.304 563.168,344.936 562.672,344.36 C562.448,344.12 562.448,344.12 562.288,343.928 L561.472,344.568 Z" id="⺨" fill="#D8DC52"></path>
                <path d="M389.64,94.824 L389.64,93.256 C389.64,92.648 389.672,92.136 389.752,91.656 L388.488,91.656 C388.568,92.152 388.6,92.664 388.6,93.272 L388.6,94.824 L387.4,94.824 C386.872,94.824 386.504,94.792 386.088,94.728 L386.088,95.832 C386.536,95.768 386.92,95.752 387.4,95.752 L388.6,95.752 L388.6,99.256 C387.144,99.656 386.504,99.784 385.896,99.832 L386.136,100.984 C386.456,100.872 386.696,100.792 386.984,100.712 C388.216,100.376 388.216,100.376 388.6,100.264 L388.6,104.536 C388.6,104.904 388.472,105 388.024,105 C387.512,105 387.064,104.952 386.424,104.84 C386.568,105.256 386.616,105.448 386.664,105.912 C387.192,105.944 387.464,105.96 387.832,105.96 C388.648,105.96 388.984,105.912 389.24,105.752 C389.512,105.576 389.64,105.304 389.64,104.84 L389.64,99.944 C390.6,99.64 390.936,99.528 391.992,99.16 L391.944,98.184 C390.712,98.632 390.312,98.776 389.64,98.968 L389.64,95.752 L390.664,95.752 C391.128,95.752 391.512,95.768 391.96,95.832 L391.96,94.744 C391.56,94.808 391.176,94.824 390.68,94.824 L389.64,94.824 Z" id="⺘" fill="#D8DC52"></path>
                <path d="M498.216,18.776 C498.424,18.504 498.6,18.264 498.76,18.056 C499.736,16.856 500.184,16.168 501.544,13.672 L500.616,13.016 C499.512,15.176 499.064,15.864 497.832,17.288 C497.608,17.576 497.464,17.688 497.192,17.912 L498.216,18.776 Z M497,9.528 C498.456,10.248 499.256,10.76 500.392,11.72 L501.064,10.76 C499.928,9.928 499.112,9.416 497.656,8.68 L497,9.528 Z M497.976,5.752 C499.352,6.52 500.136,7.064 501.288,8.12 L501.992,7.24 C500.712,6.2 499.832,5.608 498.648,5 L497.976,5.752 Z" id="⺡" fill="#6635E0"></path>
                <path d="M17.344,238.896 C17.408,239.312 17.424,239.648 17.424,240.288 C17.424,244.24 16.336,247.312 14.096,249.696 C13.168,250.688 12.448,251.216 10.832,252.112 C11.232,252.416 11.424,252.624 11.696,253.056 C13.088,252.176 13.744,251.648 14.64,250.72 C15.664,249.696 16.368,248.672 16.928,247.44 C17.472,246.256 17.744,245.392 18.032,243.872 C18.512,246.016 19.12,247.504 20.112,248.96 C21.248,250.608 22.4,251.728 24.352,253.056 C24.624,252.592 24.8,252.4 25.184,252.048 C24.256,251.504 23.84,251.232 23.328,250.8 C22.464,250.08 21.6,249.168 20.96,248.272 C20.032,246.96 19.168,245.088 18.896,243.792 C18.72,242.912 18.544,241.248 18.544,240.32 C18.544,239.824 18.576,239.168 18.624,238.896 L17.344,238.896 Z" id="人" fill="#D8DC52"></path>
                <path d="M109.168,311.104 C109.168,311.936 109.136,312.4 109.072,313.024 L110.272,313.024 C110.208,312.56 110.192,312.08 110.192,311.152 L110.192,302.608 C110.688,301.632 110.832,301.328 111.232,300.272 C111.408,299.824 111.488,299.584 111.52,299.52 C111.632,299.264 111.632,299.264 111.696,299.12 L110.544,298.704 C110.464,299.264 110.288,299.888 109.968,300.64 C109.104,302.688 108.032,304.272 106.544,305.76 C106.848,306.064 107.024,306.336 107.184,306.72 C108.048,305.792 108.56,305.136 109.216,304.032 C109.168,304.816 109.168,305.328 109.168,305.936 L109.168,311.104 Z" id="⺅" fill="#114B5F"></path>
                <path d="M43.832,306 C42.008,308.608 39.736,310.784 37,312.544 L37.576,313.584 C40.36,311.744 42.616,309.568 44.312,307.072 C46.168,309.728 48.424,311.872 51.048,313.52 L51.64,312.48 C49.048,310.896 46.776,308.736 44.792,306 L43.832,306 Z" id="𠆢" fill="#1CC8AF"></path>
                <path d="M390.008,290.368 C390.024,290.48 390.024,290.576 390.024,290.624 C390.024,290.912 389.96,291.488 389.864,292.128 C389.56,294.224 389,296.096 388.216,297.68 C387.544,299.024 386.888,299.92 385.896,300.848 C386.36,301.12 386.504,301.232 386.92,301.68 C389.208,299.264 390.472,296.256 391.144,291.696 C391.256,290.944 391.288,290.816 391.352,290.608 L390.008,290.368 Z M394.6,290.608 C394.68,290.864 394.712,291.072 394.808,291.664 C395.144,293.824 395.72,295.824 396.488,297.552 C397.288,299.296 398.088,300.56 399.16,301.712 C399.544,301.248 399.704,301.12 400.152,300.816 C398.52,299.264 397.304,297.072 396.52,294.208 C396.12,292.784 395.816,291.2 395.784,290.368 L394.6,290.608 Z" id="ハ" fill="#6635E0"></path>
                <path d="M330.512,325.28 C330.592,325.712 330.608,325.968 330.608,326.624 L330.608,329.808 C330.608,332.336 330.336,333.936 329.696,335.296 C329.12,336.528 328.384,337.312 327.024,338.16 C327.392,338.4 327.6,338.624 327.92,339.056 C329.28,338.048 330.016,337.216 330.608,336 C331.36,334.48 331.696,332.528 331.696,329.712 L331.696,326.624 C331.696,326.048 331.712,325.728 331.792,325.28 L330.512,325.28 Z M335.424,325.328 C335.504,325.824 335.52,326.224 335.52,326.928 L335.52,337.28 C335.52,338.416 335.92,338.656 337.856,338.656 C339.856,338.656 340.416,338.512 340.736,337.952 C340.992,337.472 341.12,336.72 341.184,335.248 C340.736,335.12 340.528,335.024 340.128,334.752 C340.128,336.336 340.048,337.04 339.84,337.296 C339.632,337.552 339.2,337.632 337.984,337.632 C336.816,337.632 336.608,337.552 336.608,337.104 L336.608,326.928 C336.608,326.288 336.64,325.808 336.72,325.328 L335.424,325.328 Z" id="儿" fill="#114B5F"></path>
                <path d="M566.544,191.96 C566.544,191.224 566.576,190.68 566.64,190.232 L565.36,190.232 C565.424,190.68 565.456,191.256 565.456,191.96 L565.456,201.88 C565.456,202.776 565.744,203.208 566.496,203.448 C567.2,203.656 568.048,203.72 570.4,203.72 C573.616,203.72 574.672,203.576 575.168,203.048 C575.584,202.616 575.76,201.944 576.016,199.928 C575.616,199.848 575.312,199.72 574.896,199.432 C574.784,201 574.624,201.864 574.384,202.184 C574.08,202.568 573.184,202.68 570.192,202.68 C567.184,202.68 566.544,202.52 566.544,201.768 L566.544,197.384 C568.288,196.856 568.608,196.76 569.712,196.296 C571.488,195.592 572.752,194.936 574.624,193.816 C574.752,193.752 574.848,193.688 574.928,193.64 C575.2,193.48 575.2,193.48 575.376,193.384 L574.544,192.328 C574.096,192.824 573.504,193.24 572.32,193.88 C570.416,194.952 568.848,195.592 566.544,196.28 L566.544,191.96 Z" id="匕" fill="#6635E0"></path>
                <path d="M406.232,198.12 C406.312,197.912 406.36,197.8 406.456,197.512 C406.936,196.12 406.936,196.104 407.128,195.768 L405.928,195.496 C405.848,195.992 405.736,196.408 405.48,197.144 C404.632,199.512 403.576,201.272 402.056,202.856 C402.44,203.064 402.68,203.272 402.952,203.608 C404.2,202.104 404.936,200.952 405.8,199.096 L413.48,199.096 C413.432,202.408 413.304,204.52 413,206.472 C412.712,208.456 412.504,208.808 411.608,208.808 C410.92,208.808 409.896,208.696 408.744,208.488 C408.904,208.968 408.936,209.16 408.984,209.624 C410.072,209.752 410.792,209.8 411.672,209.8 C413.272,209.8 413.624,209.336 414.056,206.632 C414.232,205.496 414.44,202.984 414.488,201.72 C414.568,198.504 414.568,198.504 414.632,198.024 C414.088,198.088 413.544,198.12 412.6,198.12 L406.232,198.12 Z" id="勹" fill="#E84F4C"></path>
                <path d="M510.896,256.024 C510.864,258.552 510.736,260.696 510.544,262.248 C510.304,264.2 510.096,264.584 509.232,264.584 C508.416,264.584 507.456,264.456 506.208,264.184 C506.352,264.616 506.432,264.92 506.48,265.384 C507.68,265.56 508.544,265.64 509.296,265.64 C510.608,265.64 511.088,265.224 511.376,263.816 C511.632,262.632 511.888,259.416 511.936,257.064 C511.968,255.56 511.968,255.56 512.016,254.968 C511.584,255.032 511.104,255.048 510.144,255.048 L506.016,255.048 C506.048,254.504 506.096,253.432 506.096,252.904 C506.112,252.216 506.128,251.992 506.176,251.608 L504.912,251.608 C504.976,251.992 505.008,252.36 505.008,253.144 C505.008,253.944 504.992,254.12 504.944,255.048 L501.76,255.048 C500.752,255.048 500.224,255.016 499.776,254.952 L499.776,256.12 C500.192,256.056 500.832,256.024 501.744,256.024 L504.88,256.024 C504.512,259.416 503.6,261.512 501.76,263.192 C500.976,263.896 500.32,264.328 499.072,264.92 C499.376,265.096 499.648,265.384 499.92,265.816 C502.08,264.584 503.44,263.32 504.368,261.672 C505.2,260.232 505.76,258.2 505.952,256.024 L510.896,256.024 Z" id="力" fill="#114B5F"></path>
                <path d="M290.944,163.608 L301.184,163.608 L301.184,174.312 C301.184,174.648 301.072,174.696 300.352,174.696 C299.648,174.696 299.072,174.648 297.936,174.504 C298.096,174.872 298.16,175.144 298.192,175.592 C299.184,175.656 299.728,175.672 300.256,175.672 C301.888,175.672 302.256,175.448 302.256,174.424 L302.256,164.312 C302.256,163.528 302.272,163.048 302.336,162.552 C301.792,162.616 301.408,162.632 300.48,162.632 L291.712,162.632 C290.752,162.632 290.368,162.616 289.808,162.552 C289.872,163.08 289.888,163.528 289.888,164.296 L289.888,174.104 C289.888,174.888 289.856,175.448 289.776,175.992 L291.04,175.992 C290.976,175.448 290.944,174.888 290.944,174.104 L290.944,163.608 Z" id="冂" fill="#114B5F"></path>
                <path d="M467.312,128.184 L468.176,127.592 C468.656,127.944 468.944,128.264 469.28,128.824 C469.616,129.368 469.728,129.688 470.112,131.128 C470.672,133.288 471.136,134.456 471.856,135.608 C472.608,136.792 473.376,137.576 474.544,138.376 C474.176,138.664 474.016,138.84 473.712,139.288 C472.336,138.008 472.08,137.736 471.632,137.112 C470.592,135.672 469.984,134.296 469.488,132.296 C469.168,133.304 468.768,134.248 468.224,135.32 C467.632,136.488 466.672,137.656 465.152,139.048 C464.896,138.712 464.736,138.552 464.368,138.248 C466,137.08 467.056,135.8 467.856,134.008 C468.32,132.968 468.736,131.688 469.008,130.504 C468.848,129.992 468.784,129.848 468.576,129.496 C468.224,128.888 467.904,128.552 467.312,128.184 Z M462.512,138.712 L462.512,134.648 L461.44,134.648 C460.896,134.648 460.64,134.664 460.272,134.728 L460.272,133.688 C460.624,133.752 460.88,133.768 461.504,133.768 L462.352,133.768 C462.864,133.768 463.152,133.752 463.552,133.688 C463.504,134.168 463.488,134.52 463.472,135.304 L463.472,138.824 C463.568,138.936 463.648,139 463.808,139.192 C464.864,140.424 465.648,140.632 469.328,140.632 C471.648,140.632 473.456,140.536 474.832,140.344 C474.592,140.92 474.56,141 474.464,141.512 C472.896,141.592 471.184,141.624 468.96,141.624 C467.952,141.624 466.64,141.544 465.952,141.448 C465.216,141.352 464.656,141.144 464.08,140.76 C463.808,140.568 463.808,140.568 463.216,139.88 C463.088,139.736 462.912,139.64 462.768,139.64 C462.384,139.64 461.488,140.488 460.672,141.656 L459.968,140.824 C460.672,140.072 461.28,139.496 461.648,139.224 C462.064,138.92 462.304,138.776 462.512,138.712 Z M460.8,128.728 C461.92,129.784 462.4,130.328 463.344,131.672 L464.144,130.952 C463.328,129.864 462.608,129.064 461.536,128.072 L460.8,128.728 Z" id="込" fill="#52D3C0"></path>
                <path d="M531.264,138.528 L530.064,138.528 C530.144,137.936 530.176,137.408 530.176,136.688 L530.176,127.824 C530.176,127.104 530.16,126.672 530.096,126.128 C530.656,126.192 531.056,126.208 531.808,126.208 L540.224,126.208 C540.976,126.208 541.392,126.192 541.952,126.128 C541.888,126.624 541.872,127.088 541.872,127.824 L541.872,136.688 C541.872,137.392 541.904,137.968 541.984,138.528 L540.784,138.528 L540.784,137.248 L531.264,137.248 L531.264,138.528 Z M531.264,127.2 L531.264,136.256 L540.784,136.256 L540.784,127.2 L531.264,127.2 Z" id="口" fill="#114B5F"></path>
                <path d="M569.4,69.936 L569.4,66.496 C569.4,65.856 569.432,65.344 569.512,64.816 L568.2,64.816 C568.28,65.36 568.312,65.888 568.312,66.496 L568.312,69.936 L564.952,69.936 C564.168,69.936 563.624,69.904 563.208,69.84 L563.208,71.008 C563.672,70.944 564.168,70.928 564.952,70.928 L568.312,70.928 L568.312,77.312 L563.816,77.312 C563,77.312 562.408,77.28 561.912,77.216 L561.912,78.432 C562.504,78.352 563.096,78.32 563.816,78.32 L574.328,78.32 C575.016,78.32 575.544,78.352 576.136,78.432 L576.136,77.216 C575.64,77.28 575.08,77.312 574.328,77.312 L569.4,77.312 L569.4,70.928 L573.128,70.928 C573.912,70.928 574.36,70.944 574.856,71.008 L574.856,69.84 C574.408,69.904 573.96,69.936 573.128,69.936 L569.4,69.936 Z" id="土" fill="#D8DC52"></path>
                <path d="M286.384,58.448 L286.384,54.384 C286.384,53.632 286.416,53.12 286.48,52.624 L285.152,52.624 C285.216,53.152 285.248,53.664 285.248,54.384 L285.248,58.448 L280.688,58.448 C279.92,58.448 279.424,58.416 278.864,58.352 L278.864,59.6 C279.392,59.536 279.936,59.504 280.688,59.504 L285.248,59.504 L285.248,65.36 C285.248,66.112 285.216,66.72 285.136,67.248 L286.496,67.248 C286.416,66.736 286.384,66.16 286.384,65.36 L286.384,59.504 L291.296,59.504 C292.096,59.504 292.544,59.536 293.12,59.6 L293.12,58.352 C292.576,58.416 292.08,58.448 291.296,58.448 L286.384,58.448 Z" id="十" fill="#114B5F"></path>
                <path d="M222.176,107.48 C222.176,106.856 222.208,106.312 222.288,105.768 L220.944,105.768 C221.024,106.376 221.056,106.856 221.056,107.48 L221.056,118.104 C221.056,118.76 221.024,119.272 220.944,120.008 L222.288,120.008 C222.208,119.352 222.176,118.76 222.176,118.104 L222.176,111.544 C223.68,112.28 223.68,112.28 224.288,112.6 C225.872,113.464 227.024,114.168 228.752,115.384 L229.344,114.296 C226.736,112.616 225.568,111.976 222.176,110.344 L222.176,107.48 Z" id="卜" fill="#6635E0"></path>
                <path d="M224.336,23.2 C224.336,23.936 224.304,24.624 224.256,25.04 L225.488,25.04 C225.424,24.656 225.392,23.936 225.392,23.184 L225.392,12.592 L229.52,12.592 L229.52,21.392 C229.52,21.84 229.424,21.92 228.912,21.92 C228.32,21.92 227.84,21.872 227.008,21.744 C227.152,22.128 227.232,22.432 227.264,22.832 C227.84,22.896 228.496,22.928 228.928,22.928 C230.208,22.928 230.56,22.64 230.56,21.568 L230.56,12.992 C230.56,12.32 230.576,11.984 230.64,11.584 C230.208,11.632 229.824,11.648 229.2,11.648 L225.744,11.648 C225.136,11.648 224.656,11.632 224.288,11.584 C224.32,11.984 224.336,12.256 224.336,12.976 L224.336,23.2 Z" id="卩" fill="#D8DC52"></path>
                <path d="M124.8,35.28 L124.8,25.104 C124.8,24.464 124.784,24 124.72,23.536 C125.232,23.6 125.696,23.616 126.432,23.616 L133.632,23.616 C134.368,23.616 134.816,23.6 135.28,23.536 C135.216,24 135.2,24.4 135.2,25.008 L135.2,35.264 C135.2,36.032 135.232,36.48 135.296,36.976 L134.128,36.976 L134.128,35.936 L125.872,35.936 L125.872,36.976 L124.704,36.976 C124.768,36.496 124.8,36 124.8,35.28 Z M125.872,24.592 L125.872,29.072 L134.128,29.072 L134.128,24.592 L125.872,24.592 Z M125.872,30.048 L125.872,34.96 L134.128,34.96 L134.128,30.048 L125.872,30.048 Z" id="日" fill="#6635E0"></path>
            </g>
        </g>
    </g>
</svg>