<?xml version="1.0" encoding="UTF-8" standalone="no"?>
<svg width="600px" height="400px" viewBox="0 0 600 400" version="1.1" xmlns="http://www.w3.org/2000/svg" xmlns:xlink="http://www.w3.org/1999/xlink" style="background: #243D58;">
    <!-- Generator: Sketch 46 (44423) - http://www.bohemiancoding.com/sketch -->
    <title>dark</title>
    <desc>Created with Sketch.</desc>
    <defs></defs>
    <g id="Page-1" stroke="none" stroke-width="1" fill="none" fill-rule="evenodd">
        <g id="dark">
            <g id="pieces" transform="translate(17.000000, 22.000000)">
                <path d="M29.56,84.872 C30.088,84.808 30.696,84.776 31.624,84.776 L38.2,84.776 C39.224,84.776 39.672,84.792 40.296,84.872 L40.296,83.592 C39.736,83.672 39.272,83.688 38.2,83.688 L31.624,83.688 C30.744,83.688 30.12,83.656 29.56,83.576 L29.56,84.872 Z M41.864,92.952 C41.256,93.048 40.808,93.064 39.736,93.064 L30.232,93.064 C29.16,93.064 28.696,93.032 28.12,92.952 L28.12,94.264 C28.696,94.184 29.288,94.152 30.248,94.152 L39.736,94.152 C40.712,94.152 41.304,94.184 41.864,94.264 L41.864,92.952 Z" id="二" fill="#52D3C0"></path>
                <path d="M234.04,208.072 C233.56,208.152 232.872,208.184 231.928,208.184 L222.072,208.184 C221.144,208.184 220.456,208.152 219.944,208.072 L219.944,209.4 C220.456,209.32 221.192,209.288 222.072,209.288 L231.928,209.288 C232.92,209.288 233.464,209.32 234.04,209.4 L234.04,208.072 Z" id="一" fill="#F8F8F8"></path>
                <path d="M13.184,5.632 C13.984,5.632 14.432,5.664 14.944,5.744 L14.944,4.496 C14.512,4.576 13.984,4.608 13.168,4.608 L8.32,4.608 C8.368,3.904 8.384,3.248 8.4,2.64 C8.4,1.872 8.432,1.504 8.512,0.976 L7.2,0.976 C7.28,1.408 7.312,1.968 7.312,2.736 C7.312,3.312 7.296,3.84 7.264,4.32 C7.248,4.496 7.248,4.496 7.248,4.608 L2.832,4.608 C1.984,4.608 1.456,4.576 1.04,4.496 L1.04,5.744 C1.504,5.664 1.952,5.632 2.8,5.632 L7.152,5.632 C7.072,6.224 7.024,6.528 6.96,6.88 C6.608,8.608 5.936,10.048 4.928,11.216 C3.888,12.416 2.72,13.2 0.72,14.016 C1.056,14.368 1.184,14.544 1.408,14.992 C2.128,14.656 2.48,14.48 2.912,14.24 C3.984,13.616 4.976,12.8 5.712,11.936 C6.832,10.64 7.68,8.848 7.984,7.072 C9.152,10.752 11.104,13.072 14.704,14.976 C14.96,14.464 15.088,14.288 15.408,13.904 C13.584,13.12 12.24,12.144 11.072,10.784 C9.856,9.376 8.944,7.568 8.464,5.632 L13.184,5.632 Z" id="大" fill="#F8F8F8"></path>
                <path d="M123.264,105.528 L122.064,105.528 C122.144,104.936 122.176,104.408 122.176,103.688 L122.176,94.824 C122.176,94.104 122.16,93.672 122.096,93.128 C122.656,93.192 123.056,93.208 123.808,93.208 L132.224,93.208 C132.976,93.208 133.392,93.192 133.952,93.128 C133.888,93.624 133.872,94.088 133.872,94.824 L133.872,103.688 C133.872,104.392 133.904,104.968 133.984,105.528 L132.784,105.528 L132.784,104.248 L123.264,104.248 L123.264,105.528 Z M123.264,94.2 L123.264,103.256 L132.784,103.256 L132.784,94.2 L123.264,94.2 Z" id="口" fill="#E84F4C"></path>
                <path d="M379.184,21.024 C378.208,22.768 377.632,23.6 376.64,24.688 C375.488,25.984 374,27.232 372.576,28.096 C372.896,28.336 373.152,28.64 373.392,29.024 C374.544,28.224 375.504,27.392 376.48,26.4 C377.696,25.152 378.56,23.904 379.392,22.144 C379.36,22.8 379.328,23.616 379.328,24.144 L379.328,29.344 C379.328,30.08 379.296,30.624 379.216,31.184 L380.512,31.184 C380.432,30.672 380.4,30.096 380.4,29.344 L380.4,24.144 C380.4,23.552 380.368,22.832 380.32,22.08 C380.96,23.28 381.248,23.76 381.776,24.48 C382.624,25.648 383.152,26.208 384.432,27.328 C385.216,28.016 385.616,28.32 386.592,28.976 C386.848,28.528 386.992,28.368 387.392,27.968 C385.872,27.12 384.592,26.144 383.312,24.8 C382.304,23.76 381.552,22.736 380.56,21.024 L385.12,21.024 C385.728,21.024 386.336,21.056 386.912,21.12 L386.912,19.968 C386.432,20.048 385.936,20.08 385.104,20.08 L380.4,20.08 L380.4,18.288 C380.4,17.792 380.432,17.328 380.512,16.832 L379.216,16.832 C379.296,17.344 379.328,17.76 379.328,18.304 L379.328,20.08 L374.864,20.08 C374.176,20.08 373.664,20.048 373.12,19.968 L373.12,21.12 C373.728,21.056 374.24,21.024 374.88,21.024 L379.184,21.024 Z" id="木" fill="#1CC8AF"></path>
                <path d="M451.552,336.056 L452.192,336.664 C452.048,336.904 452.048,336.904 451.392,338.456 C450.992,339.368 449.984,341.08 449.296,342.008 C449.152,342.216 449.024,342.376 448.752,342.712 C450.608,344.824 452.528,346.072 455.344,347 C454.976,347.4 454.88,347.544 454.624,348.04 C451.872,346.968 449.808,345.528 448.08,343.496 C446.304,345.432 444.432,346.76 441.632,348.056 C441.44,347.64 441.264,347.384 440.944,347.112 C442.8,346.296 443.744,345.768 444.928,344.92 C445.92,344.2 446.56,343.64 447.44,342.68 C446.608,341.544 445.856,340.184 445.184,338.584 C444.176,339.944 443.488,340.664 442.224,341.672 C441.936,341.288 441.904,341.24 441.424,340.888 C443.376,339.448 444.624,337.976 445.664,335.88 C446.128,334.952 446.336,334.376 446.496,333.64 L447.68,333.96 C447.536,334.232 447.504,334.28 447.312,334.728 C447.088,335.272 447.008,335.448 446.672,336.12 L450.192,336.12 C450.88,336.12 451.2,336.104 451.552,336.056 Z M450.784,337.032 L446.176,337.032 C446.08,337.208 445.904,337.512 445.808,337.656 C446.608,339.576 447.104,340.504 448.096,341.88 C449.216,340.456 449.936,339.144 450.784,337.032 Z" id="夂" fill="#E84F4C"></path>
                <path d="M65.36,177.784 L66.24,178.6 C66.064,178.696 66.064,178.696 65.504,179.08 C63.184,180.648 60.656,181.72 57.312,182.52 C57.152,182.104 56.992,181.832 56.688,181.48 C59.392,180.984 61.488,180.264 63.568,179.08 C64.384,178.632 65.04,178.152 65.36,177.784 Z M67.328,185.272 L68.224,186.184 C68.064,186.296 68.048,186.312 67.808,186.488 C64.352,189.128 61.344,190.536 56.816,191.624 C56.672,191.176 56.56,190.92 56.288,190.536 C58.064,190.216 59.808,189.704 61.584,188.952 C63.968,187.944 66.656,186.232 67.328,185.272 Z M66.064,181.512 L66.912,182.376 C66.672,182.52 66.576,182.584 66.208,182.856 C63.6,184.696 61.184,185.784 57.472,186.776 C57.28,186.328 57.152,186.088 56.864,185.736 C59.68,185.112 61.968,184.248 64.08,182.984 C65.136,182.376 65.744,181.912 66.064,181.512 Z" id="彡" fill="#F8F8F8"></path>
                <path d="M155.552,238.056 L156.192,238.664 C156.048,238.904 156.048,238.904 155.392,240.456 C154.992,241.368 153.984,243.08 153.296,244.008 C153.152,244.216 153.024,244.376 152.752,244.712 C154.608,246.824 156.528,248.072 159.344,249 C158.976,249.4 158.88,249.544 158.624,250.04 C155.872,248.968 153.808,247.528 152.08,245.496 C150.304,247.432 148.432,248.76 145.632,250.056 C145.44,249.64 145.264,249.384 144.944,249.112 C146.8,248.296 147.744,247.768 148.928,246.92 C149.92,246.2 150.56,245.64 151.44,244.68 C150.608,243.544 149.856,242.184 149.184,240.584 C148.176,241.944 147.488,242.664 146.224,243.672 C145.936,243.288 145.904,243.24 145.424,242.888 C147.376,241.448 148.624,239.976 149.664,237.88 C150.128,236.952 150.336,236.376 150.496,235.64 L151.68,235.96 C151.536,236.232 151.504,236.28 151.312,236.728 C151.088,237.272 151.008,237.448 150.672,238.12 L154.192,238.12 C154.88,238.12 155.2,238.104 155.552,238.056 Z M154.784,239.032 L150.176,239.032 C150.08,239.208 149.904,239.512 149.808,239.656 C150.608,241.576 151.104,242.504 152.096,243.88 C153.216,242.456 153.936,241.144 154.784,239.032 Z" id="夂" fill="#1CC8AF"></path>
                <path d="M199.36,311.976 C199.088,312.024 198.704,312.04 198,312.04 L193.2,312.04 C193.472,311.576 193.68,311.176 193.904,310.76 C194.064,310.424 194.208,310.168 194.336,309.96 L193.136,309.592 C192.976,310.216 192.752,310.712 192.256,311.56 C190.96,313.784 189.552,315.336 187.52,316.744 C187.888,317.064 188.048,317.24 188.288,317.624 C190.08,316.248 191.488,314.728 192.64,312.968 L198.592,312.968 C197.904,314.824 197.024,316.472 195.872,317.976 C194.736,317.064 193.536,316.232 192.112,315.384 L191.392,316.12 C192.88,316.984 193.84,317.672 195.168,318.792 C194.592,319.448 193.936,320.072 193.28,320.584 C191.888,321.688 190.464,322.472 188.32,323.304 C188.384,323.384 188.432,323.432 188.464,323.48 C188.592,323.64 188.672,323.736 188.704,323.784 C188.8,323.912 188.864,324.04 188.976,324.28 C191.504,323.192 193.072,322.216 194.688,320.76 C196.352,319.256 197.408,317.848 198.672,315.416 C199.232,314.344 199.408,313.928 199.744,313.032 C199.808,312.824 199.84,312.76 199.92,312.616 L199.36,311.976 Z" id="夕" fill="#E84F4C"></path>
                <path d="M145.4,161.544 L146.264,162.2 C146.136,162.328 146.04,162.44 145.768,162.792 C144.792,164.04 143.864,164.888 142.328,165.928 C142.136,165.56 142.072,165.496 141.672,165.128 C143.336,164.168 144.776,162.776 145.4,161.544 Z M144.92,176.216 L143.736,176.216 C143.8,175.72 143.832,175.16 143.832,174.392 L143.832,170.888 C143.832,170.248 143.848,169.8 143.88,169.096 C143.336,169.768 142.856,170.216 141.976,170.872 C141.816,170.456 141.752,170.36 141.416,169.944 C143.16,168.856 144.76,167 145.352,165.4 L146.264,166.008 C146.216,166.088 146.216,166.104 146.152,166.184 C146.104,166.264 146.104,166.264 145.832,166.696 C145.528,167.16 145.144,167.704 144.808,168.104 L144.808,174.392 C144.808,175.032 144.84,175.576 144.92,176.216 Z" id="彳" fill="#DBED5A"></path>
                <path d="M252.056,285.76 L254.168,285.76 C254.872,285.76 255.544,285.792 256.072,285.872 L256.072,284.64 C255.592,284.704 254.888,284.752 254.168,284.752 L252.056,284.752 L252.056,283.856 C252.056,283.44 252.088,283.088 252.152,282.72 L250.872,282.72 C250.92,283.104 250.952,283.488 250.952,283.856 L250.952,284.752 L247.032,284.752 L247.032,283.856 C247.032,283.456 247.064,283.072 247.128,282.72 L245.832,282.72 C245.896,283.104 245.928,283.456 245.928,283.856 L245.928,284.752 L243.768,284.752 C243.08,284.752 242.424,284.72 241.944,284.64 L241.944,285.872 C242.456,285.792 243.08,285.76 243.752,285.76 L245.928,285.76 L245.928,286.784 C245.928,287.12 245.896,287.456 245.848,287.84 L247.096,287.84 C247.048,287.504 247.032,287.216 247.032,286.784 L247.032,285.76 L250.952,285.76 L250.952,286.8 C250.952,287.216 250.936,287.488 250.888,287.84 L252.136,287.84 C252.072,287.456 252.056,287.152 252.056,286.784 L252.056,285.76 Z" id="⺾" fill="#5A87D8"></path>
                <path d="M347.264,228.736 C346.864,227.344 346.72,226.928 346.224,225.808 L345.376,226.128 C345.824,227.088 346,227.664 346.336,229.152 L347.264,228.736 Z M343.552,222.704 C343.632,223.248 343.648,223.68 343.648,224.576 L343.648,235.264 C343.648,236.176 343.616,236.752 343.552,237.216 L344.8,237.216 C344.736,236.736 344.704,236.208 344.704,235.28 L344.704,224.576 C344.704,223.648 344.72,223.248 344.8,222.704 L343.552,222.704 Z M341.632,230.24 C342.208,228.88 342.448,227.984 342.704,226.112 L341.744,225.84 C341.52,227.68 341.328,228.4 340.688,229.84 L341.632,230.24 Z" id="⺖" fill="#1CC8AF"></path>
                <path d="M560.472,336.568 C560.888,336.92 560.888,336.92 561.016,337.048 C561.368,337.4 561.672,337.832 562.072,338.536 C561.224,339.272 560.776,339.576 559.8,340.136 C560.136,340.472 560.216,340.568 560.392,340.968 C561.272,340.44 561.736,340.088 562.504,339.432 C562.84,340.248 563.016,340.824 563.16,341.656 C563.016,341.88 562.824,342.168 562.616,342.424 C561.768,343.512 561.048,344.2 559.864,345 C560.184,345.32 560.28,345.448 560.456,345.848 C561.768,344.84 562.632,343.96 563.304,342.92 C563.368,343.816 563.4,344.44 563.4,345.176 C563.4,346.424 563.304,347.576 563.128,348.152 C562.968,348.76 562.776,348.952 562.328,348.952 C561.896,348.952 561.304,348.824 560.536,348.568 C560.648,348.936 560.68,349.176 560.696,349.672 C561.464,349.848 561.96,349.912 562.424,349.912 C563.304,349.912 563.72,349.64 563.976,348.872 C564.264,348.072 564.392,346.84 564.392,345.048 C564.392,342.296 564.072,340.456 563.272,338.712 C563.848,338.152 564.216,337.704 564.968,336.68 C565.144,336.44 565.192,336.376 565.32,336.232 L564.36,335.688 C564.104,336.328 563.544,337.096 562.808,337.848 C562.456,337.304 562.168,336.936 561.672,336.36 C561.448,336.12 561.448,336.12 561.288,335.928 L560.472,336.568 Z" id="⺨" fill="#DBED5A"></path>
                <path d="M387.64,94.824 L387.64,93.256 C387.64,92.648 387.672,92.136 387.752,91.656 L386.488,91.656 C386.568,92.152 386.6,92.664 386.6,93.272 L386.6,94.824 L385.4,94.824 C384.872,94.824 384.504,94.792 384.088,94.728 L384.088,95.832 C384.536,95.768 384.92,95.752 385.4,95.752 L386.6,95.752 L386.6,99.256 C385.144,99.656 384.504,99.784 383.896,99.832 L384.136,100.984 C384.456,100.872 384.696,100.792 384.984,100.712 C386.216,100.376 386.216,100.376 386.6,100.264 L386.6,104.536 C386.6,104.904 386.472,105 386.024,105 C385.512,105 385.064,104.952 384.424,104.84 C384.568,105.256 384.616,105.448 384.664,105.912 C385.192,105.944 385.464,105.96 385.832,105.96 C386.648,105.96 386.984,105.912 387.24,105.752 C387.512,105.576 387.64,105.304 387.64,104.84 L387.64,99.944 C388.6,99.64 388.936,99.528 389.992,99.16 L389.944,98.184 C388.712,98.632 388.312,98.776 387.64,98.968 L387.64,95.752 L388.664,95.752 C389.128,95.752 389.512,95.768 389.96,95.832 L389.96,94.744 C389.56,94.808 389.176,94.824 388.68,94.824 L387.64,94.824 Z" id="⺘" fill="#DBED5A"></path>
                <path d="M468.08,16.832 C468.288,16.56 468.464,16.32 468.624,16.112 C469.6,14.912 470.048,14.224 471.408,11.728 L470.48,11.072 C469.376,13.232 468.928,13.92 467.696,15.344 C467.472,15.632 467.328,15.744 467.056,15.968 L468.08,16.832 Z M466.864,7.584 C468.32,8.304 469.12,8.816 470.256,9.776 L470.928,8.816 C469.792,7.984 468.976,7.472 467.52,6.736 L466.864,7.584 Z M467.84,3.808 C469.216,4.576 470,5.12 471.152,6.176 L471.856,5.296 C470.576,4.256 469.696,3.664 468.512,3.056 L467.84,3.808 Z" id="⺡" fill="#5A87D8"></path>
                <path d="M8.344,250.896 C8.408,251.312 8.424,251.648 8.424,252.288 C8.424,256.24 7.336,259.312 5.096,261.696 C4.168,262.688 3.448,263.216 1.832,264.112 C2.232,264.416 2.424,264.624 2.696,265.056 C4.088,264.176 4.744,263.648 5.64,262.72 C6.664,261.696 7.368,260.672 7.928,259.44 C8.472,258.256 8.744,257.392 9.032,255.872 C9.512,258.016 10.12,259.504 11.112,260.96 C12.248,262.608 13.4,263.728 15.352,265.056 C15.624,264.592 15.8,264.4 16.184,264.048 C15.256,263.504 14.84,263.232 14.328,262.8 C13.464,262.08 12.6,261.168 11.96,260.272 C11.032,258.96 10.168,257.088 9.896,255.792 C9.72,254.912 9.544,253.248 9.544,252.32 C9.544,251.824 9.576,251.168 9.624,250.896 L8.344,250.896 Z" id="人" fill="#DBED5A"></path>
                <path d="M107.168,347.104 C107.168,347.936 107.136,348.4 107.072,349.024 L108.272,349.024 C108.208,348.56 108.192,348.08 108.192,347.152 L108.192,338.608 C108.688,337.632 108.832,337.328 109.232,336.272 C109.408,335.824 109.488,335.584 109.52,335.52 C109.632,335.264 109.632,335.264 109.696,335.12 L108.544,334.704 C108.464,335.264 108.288,335.888 107.968,336.64 C107.104,338.688 106.032,340.272 104.544,341.76 C104.848,342.064 105.024,342.336 105.184,342.72 C106.048,341.792 106.56,341.136 107.216,340.032 C107.168,340.816 107.168,341.328 107.168,341.936 L107.168,347.104 Z" id="⺅" fill="#F8F8F8"></path>
                <path d="M46.52,304.304 C44.696,306.912 42.424,309.088 39.688,310.848 L40.264,311.888 C43.048,310.048 45.304,307.872 47,305.376 C48.856,308.032 51.112,310.176 53.736,311.824 L54.328,310.784 C51.736,309.2 49.464,307.04 47.48,304.304 L46.52,304.304 Z" id="𠆢" fill="#1CC8AF"></path>
                <path d="M388.008,290.368 C388.024,290.48 388.024,290.576 388.024,290.624 C388.024,290.912 387.96,291.488 387.864,292.128 C387.56,294.224 387,296.096 386.216,297.68 C385.544,299.024 384.888,299.92 383.896,300.848 C384.36,301.12 384.504,301.232 384.92,301.68 C387.208,299.264 388.472,296.256 389.144,291.696 C389.256,290.944 389.288,290.816 389.352,290.608 L388.008,290.368 Z M392.6,290.608 C392.68,290.864 392.712,291.072 392.808,291.664 C393.144,293.824 393.72,295.824 394.488,297.552 C395.288,299.296 396.088,300.56 397.16,301.712 C397.544,301.248 397.704,301.12 398.152,300.816 C396.52,299.264 395.304,297.072 394.52,294.208 C394.12,292.784 393.816,291.2 393.784,290.368 L392.6,290.608 Z" id="ハ" fill="#5A87D8"></path>
                <path d="M328.512,325.28 C328.592,325.712 328.608,325.968 328.608,326.624 L328.608,329.808 C328.608,332.336 328.336,333.936 327.696,335.296 C327.12,336.528 326.384,337.312 325.024,338.16 C325.392,338.4 325.6,338.624 325.92,339.056 C327.28,338.048 328.016,337.216 328.608,336 C329.36,334.48 329.696,332.528 329.696,329.712 L329.696,326.624 C329.696,326.048 329.712,325.728 329.792,325.28 L328.512,325.28 Z M333.424,325.328 C333.504,325.824 333.52,326.224 333.52,326.928 L333.52,337.28 C333.52,338.416 333.92,338.656 335.856,338.656 C337.856,338.656 338.416,338.512 338.736,337.952 C338.992,337.472 339.12,336.72 339.184,335.248 C338.736,335.12 338.528,335.024 338.128,334.752 C338.128,336.336 338.048,337.04 337.84,337.296 C337.632,337.552 337.2,337.632 335.984,337.632 C334.816,337.632 334.608,337.552 334.608,337.104 L334.608,326.928 C334.608,326.288 334.64,325.808 334.72,325.328 L333.424,325.328 Z" id="儿" fill="#F8F8F8"></path>
                <path d="M562.544,191.96 C562.544,191.224 562.576,190.68 562.64,190.232 L561.36,190.232 C561.424,190.68 561.456,191.256 561.456,191.96 L561.456,201.88 C561.456,202.776 561.744,203.208 562.496,203.448 C563.2,203.656 564.048,203.72 566.4,203.72 C569.616,203.72 570.672,203.576 571.168,203.048 C571.584,202.616 571.76,201.944 572.016,199.928 C571.616,199.848 571.312,199.72 570.896,199.432 C570.784,201 570.624,201.864 570.384,202.184 C570.08,202.568 569.184,202.68 566.192,202.68 C563.184,202.68 562.544,202.52 562.544,201.768 L562.544,197.384 C564.288,196.856 564.608,196.76 565.712,196.296 C567.488,195.592 568.752,194.936 570.624,193.816 C570.752,193.752 570.848,193.688 570.928,193.64 C571.2,193.48 571.2,193.48 571.376,193.384 L570.544,192.328 C570.096,192.824 569.504,193.24 568.32,193.88 C566.416,194.952 564.848,195.592 562.544,196.28 L562.544,191.96 Z" id="匕" fill="#5A87D8"></path>
                <path d="M404.232,198.12 C404.312,197.912 404.36,197.8 404.456,197.512 C404.936,196.12 404.936,196.104 405.128,195.768 L403.928,195.496 C403.848,195.992 403.736,196.408 403.48,197.144 C402.632,199.512 401.576,201.272 400.056,202.856 C400.44,203.064 400.68,203.272 400.952,203.608 C402.2,202.104 402.936,200.952 403.8,199.096 L411.48,199.096 C411.432,202.408 411.304,204.52 411,206.472 C410.712,208.456 410.504,208.808 409.608,208.808 C408.92,208.808 407.896,208.696 406.744,208.488 C406.904,208.968 406.936,209.16 406.984,209.624 C408.072,209.752 408.792,209.8 409.672,209.8 C411.272,209.8 411.624,209.336 412.056,206.632 C412.232,205.496 412.44,202.984 412.488,201.72 C412.568,198.504 412.568,198.504 412.632,198.024 C412.088,198.088 411.544,198.12 410.6,198.12 L404.232,198.12 Z" id="勹" fill="#E84F4C"></path>
                <path d="M508.896,256.024 C508.864,258.552 508.736,260.696 508.544,262.248 C508.304,264.2 508.096,264.584 507.232,264.584 C506.416,264.584 505.456,264.456 504.208,264.184 C504.352,264.616 504.432,264.92 504.48,265.384 C505.68,265.56 506.544,265.64 507.296,265.64 C508.608,265.64 509.088,265.224 509.376,263.816 C509.632,262.632 509.888,259.416 509.936,257.064 C509.968,255.56 509.968,255.56 510.016,254.968 C509.584,255.032 509.104,255.048 508.144,255.048 L504.016,255.048 C504.048,254.504 504.096,253.432 504.096,252.904 C504.112,252.216 504.128,251.992 504.176,251.608 L502.912,251.608 C502.976,251.992 503.008,252.36 503.008,253.144 C503.008,253.944 502.992,254.12 502.944,255.048 L499.76,255.048 C498.752,255.048 498.224,255.016 497.776,254.952 L497.776,256.12 C498.192,256.056 498.832,256.024 499.744,256.024 L502.88,256.024 C502.512,259.416 501.6,261.512 499.76,263.192 C498.976,263.896 498.32,264.328 497.072,264.92 C497.376,265.096 497.648,265.384 497.92,265.816 C500.08,264.584 501.44,263.32 502.368,261.672 C503.2,260.232 503.76,258.2 503.952,256.024 L508.896,256.024 Z" id="力" fill="#F8F8F8"></path>
                <path d="M288.944,163.608 L299.184,163.608 L299.184,174.312 C299.184,174.648 299.072,174.696 298.352,174.696 C297.648,174.696 297.072,174.648 295.936,174.504 C296.096,174.872 296.16,175.144 296.192,175.592 C297.184,175.656 297.728,175.672 298.256,175.672 C299.888,175.672 300.256,175.448 300.256,174.424 L300.256,164.312 C300.256,163.528 300.272,163.048 300.336,162.552 C299.792,162.616 299.408,162.632 298.48,162.632 L289.712,162.632 C288.752,162.632 288.368,162.616 287.808,162.552 C287.872,163.08 287.888,163.528 287.888,164.296 L287.888,174.104 C287.888,174.888 287.856,175.448 287.776,175.992 L289.04,175.992 C288.976,175.448 288.944,174.888 288.944,174.104 L288.944,163.608 Z" id="冂" fill="#F8F8F8"></path>
                <path d="M465.312,128.184 L466.176,127.592 C466.656,127.944 466.944,128.264 467.28,128.824 C467.616,129.368 467.728,129.688 468.112,131.128 C468.672,133.288 469.136,134.456 469.856,135.608 C470.608,136.792 471.376,137.576 472.544,138.376 C472.176,138.664 472.016,138.84 471.712,139.288 C470.336,138.008 470.08,137.736 469.632,137.112 C468.592,135.672 467.984,134.296 467.488,132.296 C467.168,133.304 466.768,134.248 466.224,135.32 C465.632,136.488 464.672,137.656 463.152,139.048 C462.896,138.712 462.736,138.552 462.368,138.248 C464,137.08 465.056,135.8 465.856,134.008 C466.32,132.968 466.736,131.688 467.008,130.504 C466.848,129.992 466.784,129.848 466.576,129.496 C466.224,128.888 465.904,128.552 465.312,128.184 Z M460.512,138.712 L460.512,134.648 L459.44,134.648 C458.896,134.648 458.64,134.664 458.272,134.728 L458.272,133.688 C458.624,133.752 458.88,133.768 459.504,133.768 L460.352,133.768 C460.864,133.768 461.152,133.752 461.552,133.688 C461.504,134.168 461.488,134.52 461.472,135.304 L461.472,138.824 C461.568,138.936 461.648,139 461.808,139.192 C462.864,140.424 463.648,140.632 467.328,140.632 C469.648,140.632 471.456,140.536 472.832,140.344 C472.592,140.92 472.56,141 472.464,141.512 C470.896,141.592 469.184,141.624 466.96,141.624 C465.952,141.624 464.64,141.544 463.952,141.448 C463.216,141.352 462.656,141.144 462.08,140.76 C461.808,140.568 461.808,140.568 461.216,139.88 C461.088,139.736 460.912,139.64 460.768,139.64 C460.384,139.64 459.488,140.488 458.672,141.656 L457.968,140.824 C458.672,140.072 459.28,139.496 459.648,139.224 C460.064,138.92 460.304,138.776 460.512,138.712 Z M458.8,128.728 C459.92,129.784 460.4,130.328 461.344,131.672 L462.144,130.952 C461.328,129.864 460.608,129.064 459.536,128.072 L458.8,128.728 Z" id="込" fill="#52D3C0"></path>
                <path d="M529.264,115.528 L528.064,115.528 C528.144,114.936 528.176,114.408 528.176,113.688 L528.176,104.824 C528.176,104.104 528.16,103.672 528.096,103.128 C528.656,103.192 529.056,103.208 529.808,103.208 L538.224,103.208 C538.976,103.208 539.392,103.192 539.952,103.128 C539.888,103.624 539.872,104.088 539.872,104.824 L539.872,113.688 C539.872,114.392 539.904,114.968 539.984,115.528 L538.784,115.528 L538.784,114.248 L529.264,114.248 L529.264,115.528 Z M529.264,104.2 L529.264,113.256 L538.784,113.256 L538.784,104.2 L529.264,104.2 Z" id="口" fill="#F8F8F8"></path>
                <path d="M562.4,33.936 L562.4,30.496 C562.4,29.856 562.432,29.344 562.512,28.816 L561.2,28.816 C561.28,29.36 561.312,29.888 561.312,30.496 L561.312,33.936 L557.952,33.936 C557.168,33.936 556.624,33.904 556.208,33.84 L556.208,35.008 C556.672,34.944 557.168,34.928 557.952,34.928 L561.312,34.928 L561.312,41.312 L556.816,41.312 C556,41.312 555.408,41.28 554.912,41.216 L554.912,42.432 C555.504,42.352 556.096,42.32 556.816,42.32 L567.328,42.32 C568.016,42.32 568.544,42.352 569.136,42.432 L569.136,41.216 C568.64,41.28 568.08,41.312 567.328,41.312 L562.4,41.312 L562.4,34.928 L566.128,34.928 C566.912,34.928 567.36,34.944 567.856,35.008 L567.856,33.84 C567.408,33.904 566.96,33.936 566.128,33.936 L562.4,33.936 Z" id="土" fill="#DBED5A"></path>
                <path d="M284.384,58.448 L284.384,54.384 C284.384,53.632 284.416,53.12 284.48,52.624 L283.152,52.624 C283.216,53.152 283.248,53.664 283.248,54.384 L283.248,58.448 L278.688,58.448 C277.92,58.448 277.424,58.416 276.864,58.352 L276.864,59.6 C277.392,59.536 277.936,59.504 278.688,59.504 L283.248,59.504 L283.248,65.36 C283.248,66.112 283.216,66.72 283.136,67.248 L284.496,67.248 C284.416,66.736 284.384,66.16 284.384,65.36 L284.384,59.504 L289.296,59.504 C290.096,59.504 290.544,59.536 291.12,59.6 L291.12,58.352 C290.576,58.416 290.08,58.448 289.296,58.448 L284.384,58.448 Z" id="十" fill="#F8F8F8"></path>
                <path d="M220.176,107.48 C220.176,106.856 220.208,106.312 220.288,105.768 L218.944,105.768 C219.024,106.376 219.056,106.856 219.056,107.48 L219.056,118.104 C219.056,118.76 219.024,119.272 218.944,120.008 L220.288,120.008 C220.208,119.352 220.176,118.76 220.176,118.104 L220.176,111.544 C221.68,112.28 221.68,112.28 222.288,112.6 C223.872,113.464 225.024,114.168 226.752,115.384 L227.344,114.296 C224.736,112.616 223.568,111.976 220.176,110.344 L220.176,107.48 Z" id="卜" fill="#5A87D8"></path>
                <path d="M222.336,23.2 C222.336,23.936 222.304,24.624 222.256,25.04 L223.488,25.04 C223.424,24.656 223.392,23.936 223.392,23.184 L223.392,12.592 L227.52,12.592 L227.52,21.392 C227.52,21.84 227.424,21.92 226.912,21.92 C226.32,21.92 225.84,21.872 225.008,21.744 C225.152,22.128 225.232,22.432 225.264,22.832 C225.84,22.896 226.496,22.928 226.928,22.928 C228.208,22.928 228.56,22.64 228.56,21.568 L228.56,12.992 C228.56,12.32 228.576,11.984 228.64,11.584 C228.208,11.632 227.824,11.648 227.2,11.648 L223.744,11.648 C223.136,11.648 222.656,11.632 222.288,11.584 C222.32,11.984 222.336,12.256 222.336,12.976 L222.336,23.2 Z" id="卩" fill="#D8DC52"></path>
                <path d="M122.8,35.28 L122.8,25.104 C122.8,24.464 122.784,24 122.72,23.536 C123.232,23.6 123.696,23.616 124.432,23.616 L131.632,23.616 C132.368,23.616 132.816,23.6 133.28,23.536 C133.216,24 133.2,24.4 133.2,25.008 L133.2,35.264 C133.2,36.032 133.232,36.48 133.296,36.976 L132.128,36.976 L132.128,35.936 L123.872,35.936 L123.872,36.976 L122.704,36.976 C122.768,36.496 122.8,36 122.8,35.28 Z M123.872,24.592 L123.872,29.072 L132.128,29.072 L132.128,24.592 L123.872,24.592 Z M123.872,30.048 L123.872,34.96 L132.128,34.96 L132.128,30.048 L123.872,30.048 Z" id="日" fill="#5A87D8"></path>
            </g>
        </g>
    </g>
</svg>